<svg width="45" height="45" viewBox="0 0 45 45" fill="none" xmlns="http://www.w3.org/2000/svg">
<rect x="45" width="45" height="45" rx="22.5" transform="rotate(90 45 0)" fill="white" fill-opacity="0.2"/>
<path d="M29.6604 33.4083C30.1271 33.0292 30.2 32.3438 29.8208 31.8771C29.4417 31.4104 28.7563 31.3375 28.2896 31.7167C26.2479 33.3646 23.8271 34.2833 21.2896 34.3708C14.7563 34.6042 9.24375 29.4708 9.025 22.9229C8.79167 16.375 13.925 10.8771 20.4583 10.6437C26.9917 10.4104 32.5042 15.5438 32.7229 22.0917C32.7521 22.9229 32.6792 23.7979 32.4896 24.7458C32.475 24.8042 32.4896 24.8625 32.4896 24.9208C32.4167 25.0667 32.3729 25.2417 32.3729 25.4021C32.3729 25.65 32.4458 25.8833 32.6208 26.0875C33 26.5542 33.6854 26.6271 34.1521 26.2625L37.7542 23.375C38.2208 22.9958 38.3083 22.3104 37.9292 21.8438C37.55 21.3771 36.8646 21.3042 36.3979 21.6688L34.8958 22.8792C34.9104 22.6021 34.925 22.3104 34.9104 22.0333C34.6479 14.2896 28.1146 8.20833 20.3708 8.48542C12.6271 8.7625 6.54583 15.2813 6.82292 23.025C7.1 30.7687 13.6188 36.85 21.3625 36.5729C24.3813 36.4417 27.2542 35.3625 29.6604 33.4083Z" fill="white"/>
<path d="M15.325 23.0542L15.325 19.7146C15.325 19.1167 15.8208 18.6208 16.4188 18.6208C17.0167 18.6208 17.5125 19.1167 17.5125 19.7146L17.5125 23.0542C17.5125 23.6813 18.0229 24.1917 18.65 24.1917C19.2771 24.1917 19.7875 23.6813 19.7875 23.0542L19.7875 19.7146C19.7875 19.3646 19.9625 19.0292 20.2396 18.825C20.5167 18.6208 20.8958 18.5625 21.2313 18.6792L24.5708 19.7875C25.0229 19.9333 25.3146 20.3563 25.3146 20.8229L25.3146 25.2854C25.3146 25.8833 24.8188 26.3792 24.2208 26.3792C23.6229 26.3792 23.1271 25.8833 23.1271 25.2854L23.1271 21.6104L21.975 21.2313L21.975 23.0542C21.975 24.8917 20.4875 26.3792 18.65 26.3792C16.8125 26.3792 15.325 24.8917 15.325 23.0542Z" fill="white"/>
</svg>
