<svg width="40" height="32" viewBox="0 0 40 32" fill="none" xmlns="http://www.w3.org/2000/svg">
<path d="M35 0C37.7559 0.000121167 40 2.24407 40 5V27C40 29.7559 37.7559 31.9999 35 32H5C2.24402 32 0 29.756 0 27V5C2.39424e-05 2.244 2.24403 0 5 0H35ZM5 4C4.44802 4 4.00002 4.44802 4 5V23.8779L9.51953 18.3604C10.8855 16.9924 13.1115 16.9925 14.4795 18.3604L16.8994 20.7744L24.3281 11.8584C24.9921 11.0624 25.964 10.6017 27 10.5957C28.0419 10.6197 29.0117 11.0402 29.6816 11.8262L36 19.1982V5C36 4.44809 35.5519 4.00012 35 4H5ZM10 6C12.206 6 14 7.79398 14 10C14 12.206 12.206 14 10 14C7.79413 13.9999 6.00002 12.2059 6 10C6 7.79405 7.79412 6.00012 10 6Z" fill="white"/>
</svg>
