<svg width="117" height="116" viewBox="0 0 117 116" fill="none" xmlns="http://www.w3.org/2000/svg">
<circle cx="58.4997" cy="57.9997" r="57.7029" fill="#7638FE" fill-opacity="0.21"/>
<path d="M58.2969 107.297C85.635 107.297 107.797 85.135 107.797 57.7969C107.797 30.4588 85.635 8.29688 58.2969 8.29688C30.9588 8.29688 8.79688 30.4588 8.79688 57.7969C8.79688 85.135 30.9588 107.297 58.2969 107.297Z" fill="url(#paint0_linear_5024_6542)"/>
<path fill-rule="evenodd" clip-rule="evenodd" d="M61.7129 81.1415V84.2734C61.7129 86.7847 60.4613 88.9529 58.2862 90.2085C57.2397 90.8126 56.0718 91.1496 54.8608 91.1502C53.6486 91.1508 52.4811 90.8132 51.4339 90.2085L37.5087 82.1688C35.3335 80.913 34.082 78.7454 34.082 76.2337V35.162C34.082 31.3828 37.1563 28.3086 40.9355 28.3086H71.604C75.3834 28.3086 78.4578 31.3824 78.4578 35.162V43.8197C78.4578 45.0616 77.4494 46.0702 76.2075 46.0702C74.9652 46.0702 73.9576 45.0618 73.9576 43.8197V35.162C73.9576 33.8642 72.9016 32.8085 71.6038 32.8085H44.7303L58.2862 40.6362C60.4605 41.8917 61.7129 44.0595 61.7129 46.5702V76.6415H71.604C72.9016 76.6415 73.9578 75.5861 73.9578 74.2885V66.6989C73.9578 65.4562 74.9646 64.4486 76.2077 64.4486C77.4502 64.4486 78.458 65.4564 78.458 66.6989V74.2885C78.458 78.0679 75.3834 81.1419 71.6042 81.1419H61.7129V81.1415ZM82.564 56.9749L80.0859 59.453C79.2073 60.3316 79.2075 61.7561 80.0859 62.6349C80.509 63.0582 81.079 63.2933 81.6769 63.2933C82.2757 63.2933 82.8449 63.0588 83.2686 62.6349L89.587 56.3153C90.4654 55.4369 90.4654 54.013 89.587 53.1346L83.2686 46.8162C82.3898 45.9374 80.9651 45.9377 80.0861 46.816C79.2077 47.6938 79.2079 49.1189 80.0861 49.9969L82.5642 52.4745H65.9625C64.7192 52.4745 63.7126 53.4819 63.7126 54.725C63.7126 55.9681 64.7194 56.9749 65.9625 56.9749H82.564Z" fill="white"/>
<defs>
<linearGradient id="paint0_linear_5024_6542" x1="8.79688" y1="57.7969" x2="107.797" y2="57.7969" gradientUnits="userSpaceOnUse">
<stop stop-color="#971EFF"/>
<stop offset="1" stop-color="#485DFE"/>
</linearGradient>
</defs>
</svg>
