<svg width="18" height="16" viewBox="0 0 18 16" fill="none" xmlns="http://www.w3.org/2000/svg">
<path d="M13.9583 0H4.04167C2.08596 0 0.5 1.62836 0.5 3.63636V9.45455C0.5 11.4625 2.08596 13.0909 4.04167 13.0909H8.29167V14.5455H5.45833C5.06663 14.5455 4.75 14.8713 4.75 15.2727C4.75 15.6742 5.06663 16 5.45833 16H12.5417C12.9334 16 13.25 15.6742 13.25 15.2727C13.25 14.8713 12.9334 14.5455 12.5417 14.5455H9.70833V13.0909H13.9583C15.914 13.0909 17.5 11.4625 17.5 9.45455V3.63636C17.5 1.62836 15.914 0 13.9583 0ZM5.31808 10.4429C3.96587 10.1164 2.90692 8.94618 2.67671 7.53964C2.3445 5.50982 3.65208 3.72218 5.45833 3.34545V6.60727C5.45833 6.99273 5.60779 7.36291 5.87342 7.63564L8.11812 9.94036C7.34392 10.4669 6.35933 10.6938 5.31808 10.4429ZM9.11971 8.912L7.08325 6.82109C6.95008 6.68436 6.87571 6.49964 6.87571 6.30691V3.34618C8.49213 3.68291 9.70904 5.14982 9.70904 6.90909C9.70904 7.65018 9.49087 8.33745 9.11971 8.912ZM14.6674 10.1818H12.5424C12.1514 10.1818 11.834 9.856 11.834 9.45455C11.834 9.05309 12.1514 8.72727 12.5424 8.72727H14.6674C15.0584 8.72727 15.3757 9.05309 15.3757 9.45455C15.3757 9.856 15.0584 10.1818 14.6674 10.1818ZM14.6674 7.27273H12.5424C12.1514 7.27273 11.834 6.94691 11.834 6.54545C11.834 6.144 12.1514 5.81818 12.5424 5.81818H14.6674C15.0584 5.81818 15.3757 6.144 15.3757 6.54545C15.3757 6.94691 15.0584 7.27273 14.6674 7.27273ZM14.6674 4.36364H12.5424C12.1514 4.36364 11.834 4.03782 11.834 3.63636C11.834 3.23491 12.1514 2.90909 12.5424 2.90909H14.6674C15.0584 2.90909 15.3757 3.23491 15.3757 3.63636C15.3757 4.03782 15.0584 4.36364 14.6674 4.36364Z" fill="#9492AF"/>
</svg>
